<svg xmlns="http://www.w3.org/2000/svg" xml:space="preserve" height="1735.227" width="1151.492"><path style="fill:#000;fill-opacity:1" d="M519.419 1109.182C240.757 1079.931 23 842.176 23 555.919 23 332.117 155.76 139.315 346.831 52l-.016 17.282C196.695 151.297 94.873 310.61 94.873 493.728c0 209.292 185.223 445.354 424.546 479.224V775.14C508.079 735.929 441 734.831 441 734.831v-12.267h272.582v12.267s-67.035 1.098-78.422 40.309c0 32.571.106 149.107.106 197.812 234.892-28.938 426.32-232.122 426.32-479.224 0-184.416-102.805-342.778-254.093-424.445V52c190.614 87.5 322.999 280.636 322.999 504.106 0 301.902-216.692 525.661-495.242 553.075v.166l-.003 175.701-60.881 303.657-54.947-303.657z"/></svg>