<svg id="eB92dZjPmSK1" xmlns="http://www.w3.org/2000/svg" xmlns:xlink="http://www.w3.org/1999/xlink" viewBox="0 0 76 40" shape-rendering="geometricPrecision" text-rendering="geometricPrecision">
<style><![CDATA[
#eB92dZjPmSK10_to {animation: eB92dZjPmSK10_to__to 10000ms linear infinite normal forwards}@keyframes eB92dZjPmSK10_to__to { 0% {transform: translate(0px,40px);animation-timing-function: cubic-bezier(0.47,0,0.305,1.005)} 15% {transform: translate(74px,1.2px)} 100% {transform: translate(74px,1.2px)}} #eB92dZjPmSK10 {animation: eB92dZjPmSK10_c_o 10000ms linear infinite normal forwards}@keyframes eB92dZjPmSK10_c_o { 0% {opacity: 1} 15% {opacity: 1} 17% {opacity: 0} 100% {opacity: 0}}
]]></style>
<defs><linearGradient id="eB92dZjPmSK3-fill" x1="23.9461" y1="17.9" x2="64.1697" y2="17.9" spreadMethod="pad" gradientUnits="userSpaceOnUse" gradientTransform="translate(0 0)"><stop id="eB92dZjPmSK3-fill-0" offset="0%" stop-color="#fff"/><stop id="eB92dZjPmSK3-fill-1" offset="98.96%" stop-color="#696c4a"/></linearGradient><radialGradient id="eB92dZjPmSK3-stroke" cx="0" cy="0" r="0.5" spreadMethod="pad" gradientUnits="objectBoundingBox" gradientTransform="matrix(0.999993 0.00361 -0.001276 0.353394 0.941755 0.951424)"><stop id="eB92dZjPmSK3-stroke-0" offset="0%" stop-color="#76795a"/><stop id="eB92dZjPmSK3-stroke-1" offset="100%" stop-color="rgba(116,119,88,0)"/></radialGradient><linearGradient id="eB92dZjPmSK4-fill" x1="24.2922" y1="1.0774" x2="67.3005" y2="37.9418" spreadMethod="pad" gradientUnits="userSpaceOnUse" gradientTransform="translate(0 0)"><stop id="eB92dZjPmSK4-fill-0" offset="0%" stop-color="#fff"/><stop id="eB92dZjPmSK4-fill-1" offset="98.96%" stop-color="#696c4a"/></linearGradient><linearGradient id="eB92dZjPmSK5-fill" x1="6.4706" y1="13.2245" x2="26.9678" y2="33.7217" spreadMethod="pad" gradientUnits="userSpaceOnUse" gradientTransform="translate(0 0)"><stop id="eB92dZjPmSK5-fill-0" offset="0%" stop-color="#fff"/><stop id="eB92dZjPmSK5-fill-1" offset="98.96%" stop-color="#696c4a"/></linearGradient><radialGradient id="eB92dZjPmSK10-fill" cx="0" cy="0" r="0.5" spreadMethod="pad" gradientUnits="objectBoundingBox" gradientTransform="translate(0.5 0.5)"><stop id="eB92dZjPmSK10-fill-0" offset="0%" stop-color="#fff"/><stop id="eB92dZjPmSK10-fill-1" offset="100%" stop-color="rgba(255,224,0,0)"/></radialGradient></defs><path d="M27.6,11.6h3.6L29.1,19L31,16.5h3l1.4-4.9h3.6L35.3,24.2h-3.6L33,19.7h-4.1l-1.3,4.5h-3.7l3.7-12.6Zm11.2,5.3l1.5-5.3h3.6c-.4,1.6-.8,2.9-1,3.8s-.4,1.6-.5,2-.2.7-.2.8s0,.2,0,.2c0,.1-.1.3-.1.4s0,.2,0,.4c0,.6.1,1,.3,1.3s.5.5.9.5h.9c.3,0,.6-.1.8-.2s.5-.4.7-.6.4-.5.5-.8c.2-.3.3-.5.4-.7l2.1-7.1h3.6l-1.7,5.9c-.3,1.1-.6,2.1-1,2.9-.3.8-.7,1.5-1.1,2.1s-.9,1-1.5,1.3-1.2.4-2,.4h-2.2c-.9,0-1.6-.1-2.2-.2s-1.1-.3-1.4-.6c-.4-.3-.6-.6-.8-1.1-.2-.4-.2-1-.2-1.6c0-.2,0-.4,0-.5c0-.2,0-.4.1-.6.1-.4.2-.8.2-1.2.1-.5.2-1,.3-1.5Zm23.4-5.3c.4,0,.7.1.9.3s.4.5.6.8.3.7.3,1.1c.1.4.1.9.1,1.3v0c0,.3-.1.6-.2.9s-.2.6-.4.8c-.2.3-.3.5-.5.7s-.4.3-.5.4c.1.1.3.3.4.6s.2.6.2.9c0,.2,0,.4-.1.7-.1.2-.1.4-.2.6l-.1.3c-.2.6-.4,1-.6,1.4s-.5.7-.8,1c-.3.2-.7.4-1.1.5-.5.1-1,.2-1.7.2h-8.7l3.7-12.6h8.7ZM58.3,21c0,0,.1-.1.3-.2s.3-.2.4-.3c.1-.2.2-.4.2-.4v-.1c0,0,0-.1,0-.2s0-.2,0-.3h-4.4L54.4,21h3.9ZM57,16.4h3c0,0,0,0,.1-.1c0-.1.1-.2.1-.2c0-.1.1-.2.1-.3s.1-.2.1-.2v-.1c0,0,0-.1,0-.1c0-.1-.1-.2-.2-.3s-.2-.2-.2-.2h-3.9l-1,3.6L57,16.4Z" fill="url(#eB92dZjPmSK3-fill)" stroke="url(#eB92dZjPmSK3-stroke)" stroke-width="0.7" stroke-opacity="0" stroke-dashoffset="9"/><path d="M70.5,7.5L68.4,5.4c-.3-.3-.7-.4-1.1-.4h-47.2L23,7.9h42.5c.4,0,.8.2,1.1.4l.7.7c.3.3.4.7.4,1.1v15.8c0,.4-.2.8-.4,1.1l-.6.6c-.3.3-.7.4-1.1.4h-42.7L20,30.9h47.3c.4,0,.8-.2,1.1-.4l2-2c.3-.3.4-.7.4-1.1v-18.8c.1-.4-.1-.8-.3-1.1Z" fill="url(#eB92dZjPmSK4-fill)"/><path d="M21,8.9l-3-3c-.7-.7-1.5-1-2.4-1h-7.2c-1,0-1.8.3-2.4,1l-3,3c-.7.7-1,1.5-1,2.4v13.2c0,.9.3,1.7,1,2.4l3,2.9c.7.7,1.5,1,2.4,1h1.6v3.1l2.1,3.9L14,33.9v-3.1h1.6c.8,0,1.5-.2,2-.7l.4-.3l3.1-3.1c.6-.6.8-1.4.8-2.2v-13.2c0-.9-.3-1.7-.9-2.4ZM17.7,24c0,.2-.1.4-.2.5l-2.3,2.3c-.1.1-.3.2-.4.2h-.8v-1.9h-4.1v1.9h-.7c-.2,0-.3-.1-.5-.2L6.4,24.5c-.1-.1-.2-.3-.2-.5v-12.2c0-.2.1-.3.2-.5L8.7,9c.1-.1.3-.2.5-.2h5.6c.2,0,.4.1.5.2l2.3,2.3c.1.1.2.3.2.5v12.2h-.1Z" fill="url(#eB92dZjPmSK5-fill)"/><rect width="4.1" height="0.3" rx="0" ry="0" transform="translate(9.9 25.1)" fill="#fff"/><g mask="url(#eB92dZjPmSK9)"><path d="M27.6,11.6h3.6L29.1,19L31,16.5h3l1.4-4.9h3.6L35.3,24.2h-3.6L33,19.7h-4.1l-1.3,4.5h-3.7l3.7-12.6Zm11.2,5.3l1.5-5.3h3.6c-.4,1.6-.8,2.9-1,3.8s-.4,1.6-.5,2-.2.7-.2.8s0,.2,0,.2c0,.1-.1.3-.1.4s0,.2,0,.4c0,.6.1,1,.3,1.3s.5.5.9.5h.9c.3,0,.6-.1.8-.2s.5-.4.7-.6.4-.5.5-.8c.2-.3.3-.5.4-.7l2.1-7.1h3.6l-1.7,5.9c-.3,1.1-.6,2.1-1,2.9-.3.8-.7,1.5-1.1,2.1s-.9,1-1.5,1.3-1.2.4-2,.4h-2.2c-.9,0-1.6-.1-2.2-.2s-1.1-.3-1.4-.6c-.4-.3-.6-.6-.8-1.1-.2-.4-.2-1-.2-1.6c0-.2,0-.4,0-.5c0-.2,0-.4.1-.6.1-.4.2-.8.2-1.2.1-.5.2-1,.3-1.5Zm23.4-5.3c.4,0,.7.1.9.3s.4.5.6.8.3.7.3,1.1c.1.4.1.9.1,1.3v0c0,.3-.1.6-.2.9s-.2.6-.4.8c-.2.3-.3.5-.5.7s-.4.3-.5.4c.1.1.3.3.4.6s.2.6.2.9c0,.2,0,.4-.1.7-.1.2-.1.4-.2.6l-.1.3c-.2.6-.4,1-.6,1.4s-.5.7-.8,1c-.3.2-.7.4-1.1.5-.5.1-1,.2-1.7.2h-8.7l3.7-12.6h8.7ZM58.3,21c0,0,.1-.1.3-.2s.3-.2.4-.3c.1-.2.2-.4.2-.4v-.1c0,0,0-.1,0-.2s0-.2,0-.3h-4.4L54.4,21h3.9ZM57,16.4h3c0,0,0,0,.1-.1c0-.1.1-.2.1-.2c0-.1.1-.2.1-.3s.1-.2.1-.2v-.1c0,0,0-.1,0-.1c0-.1-.1-.2-.2-.3s-.2-.2-.2-.2h-3.9l-1,3.6L57,16.4ZM70.5,7.5L68.4,5.4c-.3-.3-.7-.4-1.1-.4h-47.2L23,7.9h42.5c.4,0,.8.2,1.1.4l.7.7c.3.3.4.7.4,1.1v15.8c0,.4-.2.8-.4,1.1l-.6.6c-.3.3-.7.4-1.1.4h-42.7L20,30.9h47.3c.4,0,.8-.2,1.1-.4l2-2c.3-.3.4-.7.4-1.1v-18.8c.1-.4-.1-.8-.3-1.1ZM21,8.9l-3-3c-.7-.7-1.5-1-2.4-1h-7.2c-1,0-1.8.3-2.4,1l-3,3c-.7.7-1,1.5-1,2.4v13.2c0,.9.3,1.7,1,2.4l3,2.9c.7.7,1.5,1,2.4,1h1.6v3.1l2.1,3.9L14,33.9v-3.1h1.6c.8,0,1.5-.2,2-.7l.4-.3l3.1-3.1c.6-.6.8-1.4.8-2.2v-13.2c0-.9-.3-1.7-.9-2.4ZM17.7,24c0,.2-.1.4-.2.5l-2.3,2.3c-.1.1-.3.2-.4.2h-.8v-1.9h-4.1v1.9h-.7c-.2,0-.3-.1-.5-.2L6.4,24.5c-.1-.1-.2-.3-.2-.5v-12.2c0-.2.1-.3.2-.5L8.7,9c.1-.1.3-.2.5-.2h5.6c.2,0,.4.1.5.2l2.3,2.3c.1.1.2.3.2.5v12.2h-.1Z" fill="none" stroke="#fff" stroke-miterlimit="10"/><mask id="eB92dZjPmSK9" mask-type="luminance" x="-150%" y="-150%" height="400%" width="400%"><g id="eB92dZjPmSK10_to" transform="translate(0,40)"><ellipse id="eB92dZjPmSK10" rx="7.790841" ry="7.790841" transform="translate(0,-0.2)" fill="url(#eB92dZjPmSK10-fill)" stroke-width="0"/></g></mask></g></svg>
