<?xml version="1.0" encoding="UTF-8"?>
<svg width="24px" height="24px" viewBox="0 0 24 24" version="1.1" xmlns="http://www.w3.org/2000/svg" xmlns:xlink="http://www.w3.org/1999/xlink">
    <title>star</title>
    <g id="star" stroke="none" stroke-width="1" fill="none" fill-rule="evenodd">
        <g id="Group" transform="translate(4.000000, 4.000000)" fill-rule="nonzero">
            <path d="M15.180548,5.02416415 L10.81121,4.40021787 L8.85831623,0.521791261 C8.50841031,-0.169529495 7.49458034,-0.17831747 7.14168377,0.521791261 L5.18879004,4.40021787 L0.819451999,5.02416415 C0.0359019886,5.13547851 -0.278116146,6.08165056 0.290107145,6.62357573 L3.45122303,9.64078072 L2.7035608,13.9029489 C2.5689816,14.6733615 3.39739135,15.2504385 4.09122189,14.8901315 L8,12.8776851 L11.9087781,14.8901315 C12.6026087,15.2475092 13.4310184,14.6733615 13.2964392,13.9029489 L12.548777,9.64078072 L15.7098929,6.62357573 C16.2781161,6.08165056 15.964098,5.13547851 15.180548,5.02416415 L15.180548,5.02416415 Z" id="Path" fill="#7A7A7A"></path>
            <polygon id="Path" fill="#3C3C4C" points="11 9.02090957 11.7067594 13 8 11.1225823 4.29324056 13 5 9.02090957 2 6.20334553 6.14512922 5.62258233 8 2 9.85487078 5.62258233 14 6.20334553"></polygon>
        </g>
    </g>
</svg>