<?xml version="1.0" encoding="UTF-8" standalone="no"?>
<svg xmlns:rdf="http://www.w3.org/1999/02/22-rdf-syntax-ns#" xmlns="http://www.w3.org/2000/svg" height="646.24" width="476.46" version="1.1" xmlns:cc="http://creativecommons.org/ns#" xmlns:dc="http://purl.org/dc/elements/1.1/">
 <g transform="translate(-156.056 -152.099)">
  <path d="m389.589 761.416c-13.1736-72.0916-19.0122-112.316-18.2891-126 0.0378-0.71545 1.38461-1.25 3.14938-1.25 3.915 0 3.44907-1.80579-1.16107-4.5l-3.42226-2 0.2727-17.0362 0.27269-17.0362-13.7727-2.20757c-8.39651-1.34584-18.7324-3.8622-26.4785-6.44638l-12.7058-4.23881-0.2942-5.01744-0.29419-5.01744-5.75-0.2999c-3.5393-0.1846-5.75 0.10375-5.75 0.75 0 0.59877-2.23722 1.0499-5.20662 1.0499-4.78509 0-6.09732-0.58697-16.2082-7.25-6.05086-3.9875-12.5352-8.9375-14.4098-11-2.93861-3.23334-4.00589-3.75-7.7465-3.75-4.16696 0-4.36428-0.13835-4.99541-3.50259-0.65775-3.50607-5.06255-10.1444-10.7808-16.2474-2.28322-2.43685-3.93428-3.2678-6.59894-3.32114-3.26741-0.0654-4.39101-1.03779-13.9413-12.0651-6.59145-7.61083-11.5647-14.4369-13.6087-18.6789-2.06893-4.29355-5.14986-8.50373-8.61252-11.7692-4.40424-4.15348-6.52373-7.44892-11.5768-18-3.40207-7.10362-6.45106-13.8688-6.77553-15.0338-0.32447-1.16496-1.47846-2.9222-2.56442-3.90498-1.35326-1.22469-1.97472-3.07524-1.97526-5.88189-0.00047-2.44668-1.17474-6.5765-2.91728-10.2599-3.40429-7.19598-3.70175-9.00413-2.65582-16.1438 0.64306-4.38957 0.47375-5.64451-0.97794-7.24861-1.39343-1.53973-1.71078-3.47658-1.53817-9.38799 0.11961-4.09642-0.27704-8.37204-0.88145-9.50139-0.6044-1.12934-0.74558-2.06024-0.31373-2.06866 0.43185-0.008 1.44229-0.43095 2.24542-0.93895 1.2472-0.78889 1.1818-1.23131-0.44826-3.0325-1.39243-1.53862-1.83487-3.30619-1.6362-6.53676 0.14976-2.43533-0.0584-4.9629-0.46251-5.6168-1.08194-1.75063-0.43158-14.2303 0.78064-14.9795 0.66343-0.41002 0.70437-1.23951 0.11331-2.29567-1.37147-2.45068 2.32421-27.0474 4.83369-32.1709 0.56205-1.1475 0.89593-2.7225 0.74194-3.5-0.15398-0.77749 0.78933-5.76531 2.09624-11.084 1.94289-7.90701 2.79968-9.86338 4.69855-10.7286 1.92613-0.8776 2.32236-1.82153 2.32236-5.53252 0-6.05349 1.71205-9.56849 4.66052-9.56849 1.92232 0 2.33948-0.52441 2.33948-2.94098 0-1.61754-0.40775-3.19299-0.90612-3.501s-0.64649-1.57206-0.32916-2.80902c0.72915-2.84224 7.20401-12.8504 9.36028-14.4682 0.89375-0.67053 1.625-2.39501 1.625-3.83218 0-4.01436 2.21318-7.30604 5.1407-7.64582 1.99935-0.23206 2.63473-0.88725 2.71808-2.80285 0.20658-4.74784 1.55352-7.75292 3.96814-8.85309 1.40237-0.63896 2.42308-1.95665 2.42308-3.12807 0-1.11323 1.8-3.65024 4-5.6378 2.90645-2.6258 4-4.40212 4-6.4974 0-2.39079 0.41728-2.88364 2.4415-2.88364 1.77702 0 3.88626-1.73248 7.75-6.36567 3.52911-4.23192 7.06828-7.24505 10.5585-8.98914 2.96608-1.48217 5.25-3.3016 5.25-4.18229 0-2.58669 5.18354-6.39662 8.75-6.4313 2.69169-0.0262 3.2515-0.41812 3.25875-2.2816 0.0109-2.80133 6.9173-7.40503 22.8108-15.2053 11.4824-5.63536 14.8326-6.49257 16.9805-4.34472 2.67071 2.67071 1.00945 4.38194-9.5138 9.8-5.87532 3.025-12.0558 6.67912-13.7343 8.12026-1.67855 1.44114-8.01157 6.39114-14.0734 11-7.80179 5.93177-10.9208 8.89097-10.6767 10.1297 0.18965 0.9625-0.0845 1.75-0.60924 1.75-1.68786 0-17.669 17.0489-18.3617 19.5885-0.368 1.34919-2.9555 5.09232-5.75 8.31805-2.79451 3.22574-5.08092 6.75167-5.08092 7.8354 0 1.08372-1.575 4.03312-3.5 6.55422-1.925 2.52109-3.50542 5.1733-3.51204 5.8938-0.007 0.72049-1.13163 3.26842-2.5 5.66206-1.36838 2.39364-2.48796 5.77668-2.48796 7.51787 0 1.74118-1.125 4.82138-2.5 6.84487-1.375 2.0235-2.5 5.06792-2.5 6.76538s-1.125 5.30638-2.5 8.01981c-2.04704 4.03963-2.5 6.3826-2.5 12.9313 0 7.08159-2.70929 24.7376-4.48339 29.2176-0.35913 0.90687-0.17228 1.94592 0.41522 2.30902 0.64992 0.40167 1.06767 4.84626 1.06689 11.3512-0.0007 5.88004 0.51953 14.418 1.15607 18.9734l1.15735 8.28238-2.84316 2.96762c-1.56374 1.63219-3.39184 2.96762-4.06245 2.96762-0.69322 0-1.01093 0.79677-0.73637 1.8467 0.33754 1.29074 1.1597 1.71732 2.73096 1.41695 3.58055-0.68446 8.59888 4.13973 8.59888 8.26623 0 1.84365-0.48911 3.65437-1.08691 4.02383-0.6847 0.42317 0.0254 1.83266 1.91911 3.80902 2.21988 2.31681 3.3354 4.83626 4.26552 9.63385 0.86605 4.4671 1.94274 7.03401 3.44661 8.21695 1.20291 0.94621 3.22419 4.49352 4.49174 7.88292 1.88762 5.04744 2.10858 6.68197 1.22115 9.03305-1.03672 2.74659-0.9593 2.8705 1.79359 2.8705 2.20251 0 3.47171 0.87506 5.41314 3.73213 1.39483 2.05268 2.53605 4.89349 2.53605 6.31291 0 1.56216 1.18409 3.71521 3 5.45496 1.65 1.5808 3 3.49124 3 4.24543 0 2.18261 8.32515 12.1372 10.202 12.1988 0.93608 0.0307 3.11524 2.10995 4.84259 4.62056 3.40861 4.95425 10.5123 11.8794 14.9606 14.5846 1.53522 0.93362 3.5456 2.96946 4.46753 4.52408 0.92192 1.55463 4.60912 4.55649 8.19377 6.67081 5.12126 3.02064 6.41086 4.25224 6.0195 5.74879-0.34071 1.30286 0.41214 2.55271 2.38291 3.95602 1.68163 1.19742 3.37361 3.69572 4.06435 6.00121 0.94027 3.13833 1.66447 3.94977 3.5251 3.94977 1.8389 0 2.34171-0.54354 2.34171-2.53138 0-1.39227 0.71515-2.80582 1.58922-3.14123 1.78731-0.68586 12.4489 4.05855 16.3558 7.27828 1.40526 1.15811 4.35502 2.43588 6.55502 2.83948 5.68676 1.04327 6.5 2.06636 6.5 8.17729 0 6.45685 0.14658 6.49208 11.4083 2.74158 7.60278-2.53196 8.23431-2.58713 16.0034-1.39806 4.44855 0.68086 9.66327 1.07955 11.5883 0.88598l3.5-0.35194 0.2885-8.12986c0.2332-6.57154 0.66448-8.4701 2.25-9.90498 2.55318-2.3106 2.49529-4.24485-0.13904-4.64561-2.04177-0.31061-2.09729-0.78119-1.98451-16.8196 0.0937-13.3203 0.43797-17.1115 1.78664-19.6733 1.41349-2.68491 1.46269-3.42383 0.31963-4.80113-0.87616-1.05571-1.27527-3.80645-1.13559-7.82669l0.21538-6.19888-5.8005-5.66473c-6.40122-6.25138-10.2794-7.82058-19.3505-7.82969-6.03113-0.006-7.95-1.14388-7.95-4.71405v-2.30846l55.25 0.25846 55.25 0.25847v2.39101c0 3.11422-1.60902 3.88726-9.63681 4.62994-9.00319 0.83292-17.6958 5.84215-20.5143 11.8217-1.62948 3.45699-1.79509 4.89666-0.98303 8.54558 0.77531 3.4838 0.68207 4.61735-0.45238 5.5-0.78593 0.61149-1.27025 2.21159-1.07627 3.55577 0.20629 1.42943-0.31401 2.93148-1.25336 3.61835-1.42828 1.04439-1.43879 1.3132-0.095 2.42848 1.25749 1.04362 1.51109 4.66786 1.51109 21.5956v20.3415l-3.48208 2.36613-3.48207 2.36613 2.98207 2.85701c1.68406 1.61343 2.98208 3.89948 2.98208 5.25198 0 2.34115 0.15169 2.38335 6.75 1.87795 17.3569-1.32944 38.5403-6.85046 48.6324-12.675 4.77182-2.75402 8.06558-3.97209 10.7408-3.97209 3.30854 0 4.18044-0.49706 6.11765-3.48762 1.7965-2.77334 2.91152-3.49016 5.44434-3.5 2.56813-0.01 3.73042-0.7831 6-3.99103 1.54817-2.18826 3.64312-3.98826 4.65546-4 1.01233-0.0117 5.28238-3.19273 9.489-7.06887 7.30072-6.72716 7.81935-7.01863 11.4094-6.4121l3.761 0.63542v-3.73982c0-3.34163 0.93163-4.70851 8.75-12.8379 4.8125-5.00394 9.86676-10.7608 11.2317-12.7931 1.36493-2.03227 3.50243-4.16012 4.75-4.72856 1.27504-0.58094 2.26832-1.92377 2.26832-3.06657 0-3.51222 6.20102-11.9715 8.79051-11.9918 2.02002-0.0159 2.26417-0.46435 2.06747-3.79798-0.17368-2.94352 1.14511-6.41636 5.95949-15.6935 3.40039-6.55241 6.18755-13.0639 6.19369-14.47 0.006-1.40608 1.36496-6.83151 3.0196-12.0565 3.47751-10.9812 6.94329-31.4924 6.95865-41.1826 0.009-5.79926 0.27496-6.76652 2.01059-7.31739 2.88282-0.91497 2.71176-5.71348-0.25-7.01287-2.1222-0.93106-2.28738-1.75391-2.90809-14.4871-0.36195-7.425-0.67493-15.6875-0.6955-18.361-0.0207-2.69396-0.66682-5.59169-1.44926-6.5-1.56255-1.81393-4.69712-13.5819-4.69712-17.6343 0-1.42138-0.9-4.34847-2-6.50465s-2-5.76783-2-8.0259c0-4.67817-1.42701-7.9741-3.45248-7.9741-0.76016 0-2.19769-2.1375-3.19451-4.75-2.02819-5.31552-12.6642-21.8524-21.3853-33.25-6.48377-8.47361-19.5178-21.3708-28.4678-28.1691-9.7263-7.3879-29.741-20.8309-31.0142-20.8309-1.84289 0-4.48577-3.43412-4.48577-5.82874 0-2.57631 1.27714-2.68935 7.12427-0.63055 5.69611 2.00561 28.3617 14.4516 37.6257 20.6609 5.5621 3.72801 7.25 5.40602 7.25 7.20753 0 1.71461 0.87692 2.70071 3.25 3.65463 1.7875 0.71852 7.24138 5.16062 12.1197 9.87132 6.96931 6.72978 11.5893 12.6358 21.5628 27.5649 19.3498 28.9644 23.0675 35.4946 23.0675 40.5177 0 3.38307 0.6605 4.97173 3.26834 7.86112 2.56996 2.84743 4.10748 6.47815 7.19551 16.9916 3.63506 12.3759 3.80106 13.4627 2.23166 14.6102-2.43739 1.78226-2.09726 5.01522 0.65979 6.27142 1.89863 0.86507 2.79529 2.78663 4.62458 9.91051 2.00334 7.80174 2.32641 12.0235 2.75681 36.0256 0.46496 25.9291 0.39566 27.3184-1.49633 30-1.09113 1.5465-3.13721 5.10141-4.54686 7.8998l-2.56299 5.08798 2.60829 2.6083 2.6083 2.60829-3.63105 9.80373c-1.99708 5.39204-5.42364 14.9787-7.61459 21.3037-12.1109 34.9628-18.9573 46.6124-43.3425 73.75-12.7155 14.1508-15.759 16.0574-15.759 9.87244 0-2.98146-2.31978-6.63599-3.47746-5.47832-1.53598 1.53598-2.00818 5.67537-1.13416 9.94209 0.957 4.67178 0.86949 5.0352-1.91165 7.93808-3.37564 3.52341-31.0628 22.772-36.9767 25.7069-2.2 1.09178-5.35 2.30123-7 2.68768-1.65 0.38644-7.29496 2.89752-12.5444 5.58018-5.80781 2.96802-11.5652 5.14563-14.7064 5.56231-3.07942 0.4085-5.84731 1.44202-6.86063 2.56172-1.24808 1.37911-3.08263 1.87696-6.91652 1.87696-2.91061 0-7.1534 0.83686-9.59501 1.89256-2.40742 1.0409-8.98962 2.46367-14.6271 3.1617l-10.25 1.26915v16.2657c0 15.7293-0.0752 16.3258-2.27884 18.0883-2.44523 1.95566-2.49973 5.24579-0.10969 6.62227 3.06666 1.76617 0.51003 38.669-3.18906 46.0314-0.78563 1.56365-1.42241 5.68852-1.42241 9.21395 0 6.19322-0.10559 6.45465-3.55302 8.79725l-3.55301 2.4143 2.55301 0.6408c1.55554 0.3904 2.55302 1.3447 2.55302 2.4424 0 0.9909-1.75088 10.5448-3.89085 21.2309-2.13997 10.6862-4.93232 28.0919-6.20523 38.6794-1.92855 16.0409-2.58187 19.25-3.91903 19.25-1.30403 0-2.38349-4.2621-5.76184-22.75z"/>
 </g>
</svg>
