<svg id="ehbAwUaznd51" xmlns="http://www.w3.org/2000/svg" xmlns:xlink="http://www.w3.org/1999/xlink" viewBox="0 0 56 40" shape-rendering="geometricPrecision" text-rendering="geometricPrecision"><style><![CDATA[#ehbAwUaznd58_to {animation: ehbAwUaznd58_to__to 10000ms linear infinite normal forwards}@keyframes ehbAwUaznd58_to__to { 0% {transform: translate(-9.177052px,39.037552px);animation-timing-function: cubic-bezier(0.095000,0.155000,0.210000,1)} 15% {transform: translate(66.377051px,9.037552px)} 100% {transform: translate(66.377051px,9.037552px)}}]]></style><defs><linearGradient id="ehbAwUaznd53-fill" x1="26.157300" y1="9.658900" x2="41.569200" y2="22.869100" spreadMethod="pad" gradientUnits="userSpaceOnUse"><stop id="ehbAwUaznd53-fill-0" offset="0%" stop-color="rgb(255,255,255)"/><stop id="ehbAwUaznd53-fill-1" offset="98.960000%" stop-color="rgb(105,108,74)"/></linearGradient><linearGradient id="ehbAwUaznd54-fill" x1="20.258300" y1="5.713700" x2="51.535100" y2="32.522400" spreadMethod="pad" gradientUnits="userSpaceOnUse"><stop id="ehbAwUaznd54-fill-0" offset="0%" stop-color="rgb(255,255,255)"/><stop id="ehbAwUaznd54-fill-1" offset="98.960000%" stop-color="rgb(105,108,74)"/></linearGradient><linearGradient id="ehbAwUaznd55-fill" x1="6.598600" y1="13.250400" x2="27.095800" y2="33.747600" spreadMethod="pad" gradientUnits="userSpaceOnUse"><stop id="ehbAwUaznd55-fill-0" offset="0%" stop-color="rgb(255,255,255)"/><stop id="ehbAwUaznd55-fill-1" offset="98.960000%" stop-color="rgb(105,108,74)"/></linearGradient><radialGradient id="ehbAwUaznd58-fill" cx="0" cy="0" r="0.500000" spreadMethod="pad" gradientUnits="objectBoundingBox" gradientTransform="matrix(1 0 0 1 0.50000000000000 0.50000000000000)"><stop id="ehbAwUaznd58-fill-0" offset="0%" stop-color="rgb(210,219,237)"/><stop id="ehbAwUaznd58-fill-1" offset="100%" stop-color="rgba(255,255,255,0)"/></radialGradient></defs><rect id="ehbAwUaznd52" display="none" width="56.700000" height="40" rx="0" ry="0" transform="matrix(1 0 0 1 -0.30000000000000 0)" fill="rgb(43,13,68)" stroke="none" stroke-width="1"/><path id="ehbAwUaznd53" d="M28.700000,24.200000L31.400000,14.800000L33.500000,14.800000L34.300000,21.800000C34.300000,22,34.400000,22.200000,34.400000,22.500000C34.400000,22.800000,34.500000,23,34.600000,23.300000C34.700000,23.600000,34.800000,23.800000,34.900000,23.900000C35,24.100000,35.100000,24.200000,35.300000,24.200000L38.400000,24.200000C38.500000,24.200000,38.600000,24.100000,38.700000,24C38.800000,23.900000,39,23.700000,39.100000,23.600000C39.200000,23.400000,39.400000,23.300000,39.500000,23.100000C39.600000,22.900000,39.700000,22.800000,39.800000,22.700000L46.500000,11.600000L42.600000,11.600000L37.300000,20.100000L36.400000,11.600000L35.900000,11.600000L33.100000,11.600000L24.100000,11.600000L24.100000,14.800000L27.700000,14.800000L25,24.200000L28.700000,24.200000Z" fill="url(#ehbAwUaznd53-fill)" stroke="none" stroke-width="1"/><path id="ehbAwUaznd54" d="M51.400000,7.500000L49.300000,5.400000C49,5.100000,48.600000,5,48.200000,5L20.300000,5L23.200000,7.900000L46.500000,7.900000C46.900000,7.900000,47.300000,8.100000,47.600000,8.300000L48.200000,9C48.500000,9.300000,48.600000,9.700000,48.600000,10.100000L48.600000,25.900000C48.600000,26.300000,48.400000,26.700000,48.200000,27L47.600000,27.600000C47.300000,27.900000,46.900000,28,46.500000,28L23.100000,28L20.200000,30.900000L48.300000,30.900000C48.700000,30.900000,49.100000,30.700000,49.400000,30.500000L51.400000,28.500000C51.700000,28.200000,51.800000,27.800000,51.800000,27.400000L51.800000,8.600000C51.800000,8.200000,51.600000,7.800000,51.400000,7.500000Z" fill="url(#ehbAwUaznd54-fill)" stroke="none" stroke-width="1"/><path id="ehbAwUaznd55" d="M21.200000,8.900000L18.200000,5.900000C17.500000,5.200000,16.700000,4.900000,15.800000,4.900000L8.600000,4.900000C7.600000,4.900000,6.800000,5.200000,6.200000,5.900000L3.200000,8.900000C2.500000,9.600000,2.200000,10.400000,2.200000,11.300000L2.200000,24.500000C2.200000,25.400000,2.500000,26.200000,3.200000,26.900000L6.200000,29.800000C6.900000,30.500000,7.700000,30.800000,8.600000,30.800000L10.200000,30.800000L10.200000,33.900000L12.300000,37.800000L14.200000,33.900000L14.200000,30.800000L15.800000,30.800000C16.600000,30.800000,17.300000,30.600000,17.800000,30.100000L18.200000,29.800000L21.300000,26.700000C21.900000,26.100000,22.100000,25.300000,22.100000,24.500000L22.100000,11.300000C22.100000,10.400000,21.800000,9.600000,21.200000,8.900000ZM17.900000,24C17.900000,24.200000,17.800000,24.400000,17.700000,24.500000L15.400000,26.800000C15.300000,26.900000,15.100000,27,15,27L14.200000,27L14.200000,25.100000L10.100000,25.100000L10.100000,27L9.400000,27C9.200000,27,9.100000,26.900000,8.900000,26.800000L6.600000,24.500000C6.500000,24.400000,6.400000,24.200000,6.400000,24L6.400000,11.800000C6.400000,11.600000,6.500000,11.500000,6.600000,11.300000L8.900000,9C9,8.900000,9.200000,8.800000,9.400000,8.800000L15,8.800000C15.200000,8.800000,15.400000,8.900000,15.500000,9L17.800000,11.300000C17.900000,11.400000,18,11.600000,18,11.800000L18,24Z" fill="url(#ehbAwUaznd55-fill)" stroke="none" stroke-width="1"/><rect id="ehbAwUaznd56" width="4.100000" height="0.300000" rx="0" ry="0" transform="matrix(1 0 0 1 10.10000000000000 25.10000000000000)" fill="rgb(255,255,255)" stroke="none" stroke-width="1"/><g id="ehbAwUaznd57" mask="url(#ehbAwUaznd59)"><g id="ehbAwUaznd58_to" transform="translate(-9.177052,39.037552)"><ellipse id="ehbAwUaznd58" rx="10.377052" ry="10.962447" transform="translate(0,0)" fill="url(#ehbAwUaznd58-fill)" stroke="none" stroke-width="0"/></g><mask id="ehbAwUaznd59" mask-type="luminance"><path id="ehbAwUaznd510" d="M28.700000,24.200000L31.400000,14.800000L33.500000,14.800000L34.300000,21.800000C34.300000,22,34.400000,22.200000,34.400000,22.500000C34.400000,22.800000,34.500000,23,34.600000,23.300000C34.700000,23.600000,34.800000,23.800000,34.900000,23.900000C35,24.100000,35.100000,24.200000,35.300000,24.200000L38.400000,24.200000C38.500000,24.200000,38.600000,24.100000,38.700000,24C38.800000,23.900000,39,23.700000,39.100000,23.600000C39.200000,23.400000,39.400000,23.300000,39.500000,23.100000C39.600000,22.900000,39.700000,22.800000,39.800000,22.700000L46.500000,11.600000L42.600000,11.600000L37.300000,20.100000L36.400000,11.600000L35.900000,11.600000L33.100000,11.600000L24.100000,11.600000L24.100000,14.800000L27.700000,14.800000L25,24.200000L28.700000,24.200000Z" fill="none" stroke="rgb(255,255,255)" stroke-width="1"/><path id="ehbAwUaznd511" d="M21.200000,8.900000L18.200000,5.900000C17.500000,5.200000,16.700000,4.900000,15.800000,4.900000L8.600000,4.900000C7.600000,4.900000,6.800000,5.200000,6.200000,5.900000L3.200000,8.900000C2.500000,9.600000,2.200000,10.400000,2.200000,11.300000L2.200000,24.500000C2.200000,25.400000,2.500000,26.200000,3.200000,26.900000L6.200000,29.800000C6.900000,30.500000,7.700000,30.800000,8.600000,30.800000L10.200000,30.800000L10.200000,33.900000L12.300000,37.800000L14.200000,33.900000L14.200000,30.800000L15.800000,30.800000C16.600000,30.800000,17.300000,30.600000,17.800000,30.100000L18.200000,29.800000L21.300000,26.700000C21.900000,26.100000,22.100000,25.300000,22.100000,24.500000L22.100000,11.300000C22.100000,10.400000,21.800000,9.600000,21.200000,8.900000ZM17.900000,24C17.900000,24.200000,17.800000,24.400000,17.700000,24.500000L15.400000,26.800000C15.300000,26.900000,15.100000,27,15,27L14.200000,27L14.200000,25.100000L10.100000,25.100000L10.100000,27L9.400000,27C9.200000,27,9.100000,26.900000,8.900000,26.800000L6.600000,24.500000C6.500000,24.400000,6.400000,24.200000,6.400000,24L6.400000,11.800000C6.400000,11.600000,6.500000,11.500000,6.600000,11.300000L8.900000,9C9,8.900000,9.200000,8.800000,9.400000,8.800000L15,8.800000C15.200000,8.800000,15.400000,8.900000,15.500000,9L17.800000,11.300000C17.900000,11.400000,18,11.600000,18,11.800000L18,24Z" fill="none" stroke="rgb(255,255,255)" stroke-width="1"/><path id="ehbAwUaznd512" d="M51.400000,7.500000L49.300000,5.400000C49,5.100000,48.600000,5,48.200000,5L20.300000,5L23.200000,7.900000L46.500000,7.900000C46.900000,7.900000,47.300000,8.100000,47.600000,8.300000L48.200000,9C48.500000,9.300000,48.600000,9.700000,48.600000,10.100000L48.600000,25.900000C48.600000,26.300000,48.400000,26.700000,48.200000,27L47.600000,27.600000C47.300000,27.900000,46.900000,28,46.500000,28L23.100000,28L20.200000,30.900000L48.300000,30.900000C48.700000,30.900000,49.100000,30.700000,49.400000,30.500000L51.400000,28.500000C51.700000,28.200000,51.800000,27.800000,51.800000,27.400000L51.800000,8.600000C51.800000,8.200000,51.600000,7.800000,51.400000,7.500000Z" fill="none" stroke="rgb(255,255,255)" stroke-width="1"/></mask></g></svg>